<svg width="167" height="40" viewBox="0 0 167 40" fill="none" xmlns="http://www.w3.org/2000/svg">
<path d="M67.9281 3.1V17H65.6481V7.48L61.4081 17H59.8281L55.5681 7.48V17H53.2881V3.1H55.7481L60.6281 14L65.4881 3.1H67.9281ZM69.1648 11.44C69.1648 10.3333 69.3915 9.35333 69.8448 8.5C70.3115 7.64667 70.9381 6.98667 71.7248 6.52C72.5248 6.04 73.4048 5.8 74.3648 5.8C75.2315 5.8 75.9848 5.97333 76.6248 6.32C77.2781 6.65333 77.7981 7.07333 78.1848 7.58V5.98H80.4848V17H78.1848V15.36C77.7981 15.88 77.2715 16.3133 76.6048 16.66C75.9381 17.0067 75.1781 17.18 74.3248 17.18C73.3781 17.18 72.5115 16.94 71.7248 16.46C70.9381 15.9667 70.3115 15.2867 69.8448 14.42C69.3915 13.54 69.1648 12.5467 69.1648 11.44ZM78.1848 11.48C78.1848 10.72 78.0248 10.06 77.7048 9.5C77.3981 8.94 76.9915 8.51333 76.4848 8.22C75.9781 7.92667 75.4315 7.78 74.8448 7.78C74.2581 7.78 73.7115 7.92667 73.2048 8.22C72.6981 8.5 72.2848 8.92 71.9648 9.48C71.6581 10.0267 71.5048 10.68 71.5048 11.44C71.5048 12.2 71.6581 12.8667 71.9648 13.44C72.2848 14.0133 72.6981 14.4533 73.2048 14.76C73.7248 15.0533 74.2715 15.2 74.8448 15.2C75.4315 15.2 75.9781 15.0533 76.4848 14.76C76.9915 14.4667 77.3981 14.04 77.7048 13.48C78.0248 12.9067 78.1848 12.24 78.1848 11.48ZM86.9195 5.8C87.7728 5.8 88.5262 5.97333 89.1795 6.32C89.8462 6.65333 90.3662 7.07333 90.7395 7.58V5.98H93.0395V17.18C93.0395 18.1933 92.8262 19.0933 92.3995 19.88C91.9728 20.68 91.3528 21.3067 90.5395 21.76C89.7395 22.2133 88.7795 22.44 87.6595 22.44C86.1662 22.44 84.9262 22.0867 83.9395 21.38C82.9528 20.6867 82.3928 19.74 82.2595 18.54H84.5195C84.6928 19.1133 85.0595 19.5733 85.6195 19.92C86.1928 20.28 86.8728 20.46 87.6595 20.46C88.5795 20.46 89.3195 20.18 89.8795 19.62C90.4528 19.06 90.7395 18.2467 90.7395 17.18V15.34C90.3528 15.86 89.8262 16.3 89.1595 16.66C88.5062 17.0067 87.7595 17.18 86.9195 17.18C85.9595 17.18 85.0795 16.94 84.2795 16.46C83.4928 15.9667 82.8662 15.2867 82.3995 14.42C81.9462 13.54 81.7195 12.5467 81.7195 11.44C81.7195 10.3333 81.9462 9.35333 82.3995 8.5C82.8662 7.64667 83.4928 6.98667 84.2795 6.52C85.0795 6.04 85.9595 5.8 86.9195 5.8ZM90.7395 11.48C90.7395 10.72 90.5795 10.06 90.2595 9.5C89.9528 8.94 89.5462 8.51333 89.0395 8.22C88.5328 7.92667 87.9862 7.78 87.3995 7.78C86.8128 7.78 86.2662 7.92667 85.7595 8.22C85.2528 8.5 84.8395 8.92 84.5195 9.48C84.2128 10.0267 84.0595 10.68 84.0595 11.44C84.0595 12.2 84.2128 12.8667 84.5195 13.44C84.8395 14.0133 85.2528 14.4533 85.7595 14.76C86.2795 15.0533 86.8262 15.2 87.3995 15.2C87.9862 15.2 88.5328 15.0533 89.0395 14.76C89.5462 14.4667 89.9528 14.04 90.2595 13.48C90.5795 12.9067 90.7395 12.24 90.7395 11.48ZM97.0542 15.14H102.054V17H94.4142V15.14L99.4342 7.84H94.4142V5.98H102.054V7.84L97.0542 15.14ZM109.148 5.8C109.988 5.8 110.735 5.98 111.388 6.34C112.055 6.7 112.575 7.23333 112.948 7.94C113.335 8.64667 113.528 9.5 113.528 10.5V17H111.268V10.84C111.268 9.85333 111.022 9.1 110.528 8.58C110.035 8.04667 109.362 7.78 108.508 7.78C107.655 7.78 106.975 8.04667 106.468 8.58C105.975 9.1 105.728 9.85333 105.728 10.84V17H103.448V2.2H105.728V7.26C106.115 6.79333 106.602 6.43333 107.188 6.18C107.788 5.92667 108.442 5.8 109.148 5.8ZM114.677 11.44C114.677 10.3333 114.903 9.35333 115.357 8.5C115.823 7.64667 116.45 6.98667 117.237 6.52C118.037 6.04 118.917 5.8 119.877 5.8C120.743 5.8 121.497 5.97333 122.137 6.32C122.79 6.65333 123.31 7.07333 123.697 7.58V5.98H125.997V17H123.697V15.36C123.31 15.88 122.783 16.3133 122.117 16.66C121.45 17.0067 120.69 17.18 119.837 17.18C118.89 17.18 118.023 16.94 117.237 16.46C116.45 15.9667 115.823 15.2867 115.357 14.42C114.903 13.54 114.677 12.5467 114.677 11.44ZM123.697 11.48C123.697 10.72 123.537 10.06 123.217 9.5C122.91 8.94 122.503 8.51333 121.997 8.22C121.49 7.92667 120.943 7.78 120.357 7.78C119.77 7.78 119.223 7.92667 118.717 8.22C118.21 8.5 117.797 8.92 117.477 9.48C117.17 10.0267 117.017 10.68 117.017 11.44C117.017 12.2 117.17 12.8667 117.477 13.44C117.797 14.0133 118.21 14.4533 118.717 14.76C119.237 15.0533 119.783 15.2 120.357 15.2C120.943 15.2 121.49 15.0533 121.997 14.76C122.503 14.4667 122.91 14.04 123.217 13.48C123.537 12.9067 123.697 12.24 123.697 11.48ZM133.551 5.8C134.418 5.8 135.191 5.98 135.871 6.34C136.565 6.7 137.105 7.23333 137.491 7.94C137.878 8.64667 138.071 9.5 138.071 10.5V17H135.811V10.84C135.811 9.85333 135.565 9.1 135.071 8.58C134.578 8.04667 133.905 7.78 133.051 7.78C132.198 7.78 131.518 8.04667 131.011 8.58C130.518 9.1 130.271 9.85333 130.271 10.84V17H127.991V5.98H130.271V7.24C130.645 6.78667 131.118 6.43333 131.691 6.18C132.278 5.92667 132.898 5.8 133.551 5.8ZM67.9281 23.1V37H65.6481V27.48L61.4081 37H59.8281L55.5681 27.48V37H53.2881V23.1H55.7481L60.6281 34L65.4881 23.1H67.9281ZM79.9048 25.98V37H77.6248V35.7C77.2648 36.1533 76.7915 36.5133 76.2048 36.78C75.6315 37.0333 75.0181 37.16 74.3648 37.16C73.4981 37.16 72.7181 36.98 72.0248 36.62C71.3448 36.26 70.8048 35.7267 70.4048 35.02C70.0181 34.3133 69.8248 33.46 69.8248 32.46V25.98H72.0848V32.12C72.0848 33.1067 72.3315 33.8667 72.8248 34.4C73.3181 34.92 73.9915 35.18 74.8448 35.18C75.6981 35.18 76.3715 34.92 76.8648 34.4C77.3715 33.8667 77.6248 33.1067 77.6248 32.12V25.98H79.9048ZM86.2731 31.5L91.3531 37H88.2731L84.1931 32.26V37H81.9131V22.2H84.1931V30.8L88.1931 25.98H91.3531L86.2731 31.5ZM97.6873 25.8C98.5273 25.8 99.274 25.98 99.9273 26.34C100.594 26.7 101.114 27.2333 101.487 27.94C101.874 28.6467 102.067 29.5 102.067 30.5V37H99.8073V30.84C99.8073 29.8533 99.5606 29.1 99.0673 28.58C98.574 28.0467 97.9006 27.78 97.0473 27.78C96.194 27.78 95.514 28.0467 95.0073 28.58C94.514 29.1 94.2673 29.8533 94.2673 30.84V37H91.9873V22.2H94.2673V27.26C94.654 26.7933 95.1406 26.4333 95.7273 26.18C96.3273 25.9267 96.9806 25.8 97.6873 25.8ZM103.216 31.44C103.216 30.3333 103.442 29.3533 103.896 28.5C104.362 27.6467 104.989 26.9867 105.776 26.52C106.576 26.04 107.456 25.8 108.416 25.8C109.282 25.8 110.036 25.9733 110.676 26.32C111.329 26.6533 111.849 27.0733 112.236 27.58V25.98H114.536V37H112.236V35.36C111.849 35.88 111.322 36.3133 110.656 36.66C109.989 37.0067 109.229 37.18 108.376 37.18C107.429 37.18 106.562 36.94 105.776 36.46C104.989 35.9667 104.362 35.2867 103.896 34.42C103.442 33.54 103.216 32.5467 103.216 31.44ZM112.236 31.48C112.236 30.72 112.076 30.06 111.756 29.5C111.449 28.94 111.042 28.5133 110.536 28.22C110.029 27.9267 109.482 27.78 108.896 27.78C108.309 27.78 107.762 27.9267 107.256 28.22C106.749 28.5 106.336 28.92 106.016 29.48C105.709 30.0267 105.556 30.68 105.556 31.44C105.556 32.2 105.709 32.8667 106.016 33.44C106.336 34.0133 106.749 34.4533 107.256 34.76C107.776 35.0533 108.322 35.2 108.896 35.2C109.482 35.2 110.029 35.0533 110.536 34.76C111.042 34.4667 111.449 34.04 111.756 33.48C112.076 32.9067 112.236 32.24 112.236 31.48ZM129.87 25.8C130.737 25.8 131.51 25.98 132.19 26.34C132.884 26.7 133.424 27.2333 133.81 27.94C134.21 28.6467 134.41 29.5 134.41 30.5V37H132.15V30.84C132.15 29.8533 131.904 29.1 131.41 28.58C130.917 28.0467 130.244 27.78 129.39 27.78C128.537 27.78 127.857 28.0467 127.35 28.58C126.857 29.1 126.61 29.8533 126.61 30.84V37H124.35V30.84C124.35 29.8533 124.104 29.1 123.61 28.58C123.117 28.0467 122.444 27.78 121.59 27.78C120.737 27.78 120.057 28.0467 119.55 28.58C119.057 29.1 118.81 29.8533 118.81 30.84V37H116.53V25.98H118.81V27.24C119.184 26.7867 119.657 26.4333 120.23 26.18C120.804 25.9267 121.417 25.8 122.07 25.8C122.95 25.8 123.737 25.9867 124.43 26.36C125.124 26.7333 125.657 27.2733 126.03 27.98C126.364 27.3133 126.884 26.7867 127.59 26.4C128.297 26 129.057 25.8 129.87 25.8ZM138.592 27.62C138.978 27.0867 139.505 26.6533 140.172 26.32C140.852 25.9733 141.605 25.8 142.432 25.8C143.405 25.8 144.285 26.0333 145.072 26.5C145.858 26.9667 146.478 27.6333 146.932 28.5C147.385 29.3533 147.612 30.3333 147.612 31.44C147.612 32.5467 147.385 33.54 146.932 34.42C146.478 35.2867 145.852 35.9667 145.052 36.46C144.265 36.94 143.392 37.18 142.432 37.18C141.578 37.18 140.818 37.0133 140.152 36.68C139.498 36.3467 138.978 35.92 138.592 35.4V37H136.312V22.2H138.592V27.62ZM145.292 31.44C145.292 30.68 145.132 30.0267 144.812 29.48C144.505 28.92 144.092 28.5 143.572 28.22C143.065 27.9267 142.518 27.78 141.932 27.78C141.358 27.78 140.812 27.9267 140.292 28.22C139.785 28.5133 139.372 28.94 139.052 29.5C138.745 30.06 138.592 30.72 138.592 31.48C138.592 32.24 138.745 32.9067 139.052 33.48C139.372 34.04 139.785 34.4667 140.292 34.76C140.812 35.0533 141.358 35.2 141.932 35.2C142.518 35.2 143.065 35.0533 143.572 34.76C144.092 34.4533 144.505 34.0133 144.812 33.44C145.132 32.8667 145.292 32.2 145.292 31.44ZM158.966 31.22C158.966 31.6333 158.94 32.0067 158.886 32.34H150.466C150.533 33.22 150.86 33.9267 151.446 34.46C152.033 34.9933 152.753 35.26 153.606 35.26C154.833 35.26 155.7 34.7467 156.206 33.72H158.666C158.333 34.7333 157.726 35.5667 156.846 36.22C155.98 36.86 154.9 37.18 153.606 37.18C152.553 37.18 151.606 36.9467 150.766 36.48C149.94 36 149.286 35.3333 148.806 34.48C148.34 33.6133 148.106 32.6133 148.106 31.48C148.106 30.3467 148.333 29.3533 148.786 28.5C149.253 27.6333 149.9 26.9667 150.726 26.5C151.566 26.0333 152.526 25.8 153.606 25.8C154.646 25.8 155.573 26.0267 156.386 26.48C157.2 26.9333 157.833 27.5733 158.286 28.4C158.74 29.2133 158.966 30.1533 158.966 31.22ZM156.586 30.5C156.573 29.66 156.273 28.9867 155.686 28.48C155.1 27.9733 154.373 27.72 153.506 27.72C152.72 27.72 152.046 27.9733 151.486 28.48C150.926 28.9733 150.593 29.6467 150.486 30.5H156.586ZM162.87 27.84V33.94C162.87 34.3533 162.963 34.6533 163.15 34.84C163.35 35.0133 163.683 35.1 164.15 35.1H165.55V37H163.75C162.723 37 161.937 36.76 161.39 36.28C160.843 35.8 160.57 35.02 160.57 33.94V27.84H159.27V25.98H160.57V23.24H162.87V25.98H165.55V27.84H162.87Z" fill="white"/>
<path d="M41.7872 23.5901L20.8936 38.9991L0 23.5901V16.7997L20.8936 32.2087L41.7872 16.2773V23.5901Z" fill="white"/>
<path d="M41.7872 8.31277L20.8936 23.7218L0 8.31277V1.52234L20.8936 16.9314L41.7872 1V8.31277Z" fill="white"/>
<path d="M9.40213 38.87L0 31.8184V38.87H9.40213Z" fill="white"/>
<path d="M32.3857 38.87L41.7879 31.8184V38.87H32.3857Z" fill="white"/>
</svg>
